<svg width="21" height="20" viewBox="0 0 21 20" fill="none" xmlns="http://www.w3.org/2000/svg">
<path d="M7.55469 11.9417C7.55469 13.0167 8.37969 13.8834 9.40469 13.8834H11.4964C12.388 13.8834 13.113 13.125 13.113 12.1917C13.113 11.175 12.6714 10.8167 12.013 10.5834L8.65469 9.4167C7.99635 9.18337 7.55469 8.82503 7.55469 7.80837C7.55469 6.87503 8.27969 6.1167 9.17135 6.1167H11.263C12.288 6.1167 13.113 6.98337 13.113 8.05837" stroke="#A0A0A0" stroke-width="1.5" stroke-linecap="round" stroke-linejoin="round"/>
<path d="M10.3281 5V15" stroke="#A0A0A0" stroke-width="1.5" stroke-linecap="round" stroke-linejoin="round"/>
<path d="M12.828 18.3332H7.82796C3.6613 18.3332 1.99463 16.6665 1.99463 12.4998V7.49984C1.99463 3.33317 3.6613 1.6665 7.82796 1.6665H12.828C16.9946 1.6665 18.6613 3.33317 18.6613 7.49984V12.4998C18.6613 16.6665 16.9946 18.3332 12.828 18.3332Z" stroke="#A0A0A0" stroke-width="1.5" stroke-linecap="round" stroke-linejoin="round"/>
</svg>
