<svg width="22" height="20" viewBox="0 0 22 20" fill="none" xmlns="http://www.w3.org/2000/svg">
<path d="M16.1131 11.2918C15.7456 11.6335 15.5356 12.1252 15.5881 12.6502C15.6669 13.5502 16.5331 14.2085 17.4781 14.2085H19.1406V15.2002C19.1406 16.9252 17.6619 18.3335 15.8506 18.3335H5.80563C3.99438 18.3335 2.51562 16.9252 2.51562 15.2002V9.59184C2.51562 7.86684 3.99438 6.4585 5.80563 6.4585H15.8506C17.6619 6.4585 19.1406 7.86684 19.1406 9.59184V10.7918H17.3731C16.8831 10.7918 16.4369 10.9752 16.1131 11.2918Z" stroke="#A0A0A0" stroke-width="1.5" stroke-linecap="round" stroke-linejoin="round"/>
<path d="M2.51562 10.3416V6.5333C2.51562 5.54163 3.15438 4.65826 4.12563 4.30826L11.0731 1.80826C12.1581 1.41659 13.3219 2.18329 13.3219 3.29162V6.45828" stroke="#A0A0A0" stroke-width="1.5" stroke-linecap="round" stroke-linejoin="round"/>
<path d="M20.0671 11.642V13.3587C20.0671 13.817 19.6821 14.192 19.1921 14.2086H17.4771C16.5321 14.2086 15.6658 13.5503 15.5871 12.6503C15.5346 12.1253 15.7446 11.6336 16.1121 11.292C16.4358 10.9753 16.8821 10.792 17.3721 10.792H19.1921C19.6821 10.8087 20.0671 11.1836 20.0671 11.642Z" stroke="#A0A0A0" stroke-width="1.5" stroke-linecap="round" stroke-linejoin="round"/>
<path d="M6.45312 10H12.5781" stroke="#A0A0A0" stroke-width="1.5" stroke-linecap="round" stroke-linejoin="round"/>
</svg>
