<svg width="21" height="20" viewBox="0 0 21 20" fill="none" xmlns="http://www.w3.org/2000/svg">
<path d="M6.99463 1.6665V4.1665" stroke="#A0A0A0" stroke-width="1.5" stroke-miterlimit="10" stroke-linecap="round" stroke-linejoin="round"/>
<path d="M13.6616 1.6665V4.1665" stroke="#A0A0A0" stroke-width="1.5" stroke-miterlimit="10" stroke-linecap="round" stroke-linejoin="round"/>
<path d="M17.8281 7.08317V11.3582C17.0865 10.7665 16.1448 10.4165 15.1198 10.4165C14.0948 10.4165 13.1365 10.7748 12.3865 11.3831C11.3781 12.1748 10.7448 13.4165 10.7448 14.7915C10.7448 15.6082 10.9781 16.3915 11.3781 17.0415C11.6865 17.5498 12.0865 17.9915 12.5615 18.3332H6.99479C4.07812 18.3332 2.82812 16.6665 2.82812 14.1665V7.08317C2.82812 4.58317 4.07812 2.9165 6.99479 2.9165H13.6615C16.5781 2.9165 17.8281 4.58317 17.8281 7.08317Z" stroke="#A0A0A0" stroke-width="1.5" stroke-miterlimit="10" stroke-linecap="round" stroke-linejoin="round"/>
<path d="M6.16162 9.1665H11.1616" stroke="#A0A0A0" stroke-width="1.5" stroke-miterlimit="10" stroke-linecap="round" stroke-linejoin="round"/>
<path d="M6.16162 13.3335H8.34495" stroke="#A0A0A0" stroke-width="1.5" stroke-miterlimit="10" stroke-linecap="round" stroke-linejoin="round"/>
<path d="M19.4946 14.7915C19.4946 15.6082 19.2613 16.3915 18.8613 17.0415C18.628 17.4415 18.3363 17.7915 17.9946 18.0748C17.228 18.7582 16.228 19.1665 15.1196 19.1665C14.1613 19.1665 13.278 18.8582 12.5613 18.3332C12.0863 17.9915 11.6863 17.5498 11.378 17.0415C10.978 16.3915 10.7446 15.6082 10.7446 14.7915C10.7446 13.4165 11.378 12.1748 12.3863 11.3831C13.1363 10.7748 14.0946 10.4165 15.1196 10.4165C16.1446 10.4165 17.0863 10.7665 17.828 11.3582C18.8446 12.1582 19.4946 13.3998 19.4946 14.7915Z" stroke="#A0A0A0" stroke-width="1.5" stroke-miterlimit="10" stroke-linecap="round" stroke-linejoin="round"/>
<path d="M15.12 16.8752C15.12 15.7252 16.0533 14.7918 17.2033 14.7918C16.0533 14.7918 15.12 13.8585 15.12 12.7085C15.12 13.8585 14.1866 14.7918 13.0366 14.7918C14.1866 14.7918 15.12 15.7252 15.12 16.8752Z" stroke="#A0A0A0" stroke-width="1.5" stroke-linecap="round" stroke-linejoin="round"/>
</svg>
