<svg width="21" height="20" viewBox="0 0 21 20" fill="none" xmlns="http://www.w3.org/2000/svg">
<path d="M7.96126 9.05817C7.87793 9.04984 7.77793 9.04984 7.68626 9.05817C5.70293 8.9915 4.12793 7.3665 4.12793 5.3665C4.12793 3.32484 5.77793 1.6665 7.82793 1.6665C9.8696 1.6665 11.5279 3.32484 11.5279 5.3665C11.5196 7.3665 9.9446 8.9915 7.96126 9.05817Z" stroke="#A0A0A0" stroke-width="1.5" stroke-linecap="round" stroke-linejoin="round"/>
<path d="M14.0034 3.3335C15.62 3.3335 16.92 4.64183 16.92 6.25016C16.92 7.82516 15.67 9.1085 14.1117 9.16683C14.045 9.1585 13.97 9.1585 13.895 9.16683" stroke="#A0A0A0" stroke-width="1.5" stroke-linecap="round" stroke-linejoin="round"/>
<path d="M3.79473 12.1335C1.77806 13.4835 1.77806 15.6835 3.79473 17.0252C6.08639 18.5585 9.84473 18.5585 12.1364 17.0252C14.1531 15.6752 14.1531 13.4752 12.1364 12.1335C9.85306 10.6085 6.09473 10.6085 3.79473 12.1335Z" stroke="#A0A0A0" stroke-width="1.5" stroke-linecap="round" stroke-linejoin="round"/>
<path d="M15.6113 16.6665C16.2113 16.5415 16.778 16.2998 17.2447 15.9415C18.5447 14.9665 18.5447 13.3582 17.2447 12.3832C16.7863 12.0332 16.228 11.7998 15.6363 11.6665" stroke="#A0A0A0" stroke-width="1.5" stroke-linecap="round" stroke-linejoin="round"/>
</svg>
